<svg width="100" height="100" viewBox="0 0 100 100" fill="none" xmlns="http://www.w3.org/2000/svg">
<path fill-rule="evenodd" clip-rule="evenodd" d="M50 100C77.6142 100 100 77.6142 100 50C100 22.3858 77.6142 0 50 0C22.3858 0 0 22.3858 0 50C0 77.6142 22.3858 100 50 100ZM47.5251 36.5251L25.2513 58.799C23.8844 60.1658 23.8844 62.3819 25.2513 63.7487C26.6181 65.1156 28.8342 65.1156 30.201 63.7487L50 43.9497L69.799 63.7487C71.1658 65.1156 73.3819 65.1156 74.7487 63.7487C76.1156 62.3819 76.1156 60.1658 74.7487 58.799L52.4749 36.5251C51.108 35.1583 48.892 35.1583 47.5251 36.5251Z" fill="#336699"/>
</svg>
