<svg width="460" height="512" viewBox="0 0 460 512" fill="none" xmlns="http://www.w3.org/2000/svg">
<path d="M459.83 121.92C459.83 121.551 459.799 121.192 459.754 120.836C459.743 120.744 459.728 120.655 459.713 120.564C459.666 120.271 459.606 119.984 459.532 119.703C459.515 119.638 459.5 119.571 459.481 119.505C459.38 119.157 459.258 118.817 459.116 118.487C459.101 118.453 459.083 118.42 459.068 118.387C458.937 118.096 458.79 117.817 458.629 117.545C458.585 117.471 458.542 117.399 458.496 117.327C458.321 117.05 458.135 116.783 457.93 116.529C457.913 116.508 457.899 116.485 457.882 116.464C457.662 116.195 457.421 115.944 457.17 115.703C457.103 115.639 457.033 115.578 456.963 115.516C456.747 115.322 456.522 115.139 456.287 114.967C456.232 114.927 456.179 114.883 456.123 114.844C455.827 114.638 455.518 114.452 455.196 114.285C455.179 114.276 455.164 114.263 455.145 114.254L233.924 0.94725C231.459 -0.31575 228.537 -0.31575 226.071 0.94725L4.853 114.253C4.835 114.262 4.82 114.275 4.801 114.284C4.481 114.452 4.172 114.637 3.876 114.842C3.819 114.882 3.765 114.926 3.708 114.967C3.474 115.138 3.251 115.32 3.035 115.513C2.965 115.576 2.895 115.637 2.827 115.702C2.577 115.942 2.337 116.194 2.116 116.462C2.098 116.484 2.083 116.507 2.065 116.529C1.862 116.783 1.676 117.05 1.5 117.326C1.454 117.398 1.41 117.471 1.367 117.544C1.206 117.816 1.058 118.095 0.928001 118.386C0.913001 118.419 0.895001 118.451 0.880001 118.486C0.736001 118.814 0.617001 119.154 0.515001 119.504C0.495001 119.569 0.482003 119.636 0.464003 119.702C0.389003 119.983 0.328002 120.27 0.281002 120.563C0.267002 120.654 0.251002 120.743 0.240002 120.835C0.195002 121.191 0.164001 121.552 0.164001 121.919V390.078C0.164001 390.103 0.167002 390.127 0.167002 390.153C0.168002 390.338 0.182002 390.522 0.195002 390.707C0.203002 390.815 0.206002 390.923 0.219002 391.03C0.235002 391.178 0.263003 391.324 0.287003 391.471C0.310003 391.61 0.328002 391.749 0.358002 391.886C0.380002 391.987 0.410001 392.085 0.435001 392.185C0.480001 392.36 0.521002 392.535 0.576002 392.706C0.597002 392.77 0.623002 392.832 0.645002 392.895C0.714002 393.094 0.784002 393.291 0.867002 393.483C0.896002 393.55 0.931002 393.613 0.961002 393.678C1.045 393.861 1.129 394.043 1.225 394.218C1.29 394.337 1.366 394.45 1.436 394.566C1.506 394.682 1.573 394.8 1.65 394.913C1.763 395.08 1.888 395.238 2.013 395.398C2.057 395.454 2.096 395.513 2.142 395.568C2.276 395.73 2.422 395.884 2.569 396.037C2.614 396.084 2.656 396.135 2.702 396.181C2.829 396.308 2.967 396.427 3.104 396.546C3.181 396.614 3.253 396.684 3.333 396.749C3.441 396.837 3.557 396.918 3.669 397.001C3.788 397.089 3.908 397.18 4.032 397.263C4.12 397.322 4.213 397.373 4.304 397.428C4.462 397.524 4.622 397.621 4.787 397.707C4.809 397.719 4.829 397.732 4.851 397.744L78.216 435.32C78.468 435.465 78.726 435.598 78.992 435.717L151.246 472.725C151.937 473.221 152.702 473.617 153.525 473.892L226.07 511.049C226.118 511.073 226.169 511.089 226.217 511.113C226.342 511.175 226.466 511.239 226.595 511.296C226.598 511.297 226.602 511.299 226.604 511.301C226.699 511.342 226.799 511.376 226.897 511.412C226.99 511.448 227.083 511.482 227.176 511.514C227.323 511.565 227.47 511.614 227.62 511.656C227.688 511.676 227.754 511.692 227.822 511.709C227.922 511.735 228.022 511.763 228.122 511.785C228.3 511.825 228.481 511.854 228.664 511.883C228.742 511.895 228.819 511.913 228.897 511.923C228.953 511.93 229.01 511.938 229.066 511.945C229.282 511.969 229.504 511.976 229.725 511.983C229.813 511.985 229.902 511.998 229.989 511.998C229.991 511.998 229.994 511.998 229.996 511.998C229.998 511.998 230.001 511.998 230.003 511.998C230.09 511.998 230.179 511.985 230.267 511.983C230.489 511.976 230.709 511.968 230.926 511.945C230.982 511.939 231.039 511.931 231.095 511.923C231.173 511.913 231.25 511.895 231.328 511.883C231.511 511.854 231.692 511.826 231.871 511.785C231.972 511.762 232.071 511.736 232.172 511.709C232.239 511.692 232.305 511.676 232.372 511.656C232.522 511.612 232.671 511.564 232.818 511.514C232.911 511.482 233.004 511.447 233.097 511.412C233.195 511.374 233.295 511.341 233.391 511.299C233.392 511.299 233.393 511.298 233.394 511.298C233.525 511.242 233.65 511.176 233.776 511.113C233.824 511.089 233.875 511.074 233.923 511.049L306.469 473.892C307.291 473.616 308.056 473.221 308.746 472.725L381.003 435.715C381.268 435.596 381.526 435.464 381.776 435.32L455.141 397.743C455.164 397.731 455.183 397.718 455.205 397.706C455.372 397.619 455.53 397.523 455.688 397.427C455.779 397.372 455.873 397.319 455.96 397.262C456.084 397.179 456.202 397.089 456.322 397C456.436 396.916 456.551 396.836 456.659 396.748C456.738 396.684 456.812 396.612 456.888 396.545C457.025 396.426 457.162 396.306 457.29 396.18C457.337 396.134 457.378 396.084 457.423 396.036C457.569 395.883 457.715 395.729 457.849 395.567C457.895 395.512 457.934 395.453 457.978 395.397C458.103 395.237 458.227 395.079 458.34 394.912C458.416 394.799 458.482 394.681 458.554 394.565C458.625 394.449 458.7 394.336 458.765 394.217C458.86 394.041 458.945 393.859 459.029 393.677C459.059 393.612 459.094 393.547 459.123 393.482C459.206 393.29 459.276 393.092 459.343 392.894C459.366 392.831 459.391 392.769 459.413 392.705C459.467 392.535 459.509 392.359 459.554 392.184C459.579 392.084 459.609 391.985 459.631 391.885C459.66 391.748 459.679 391.608 459.702 391.47C459.726 391.323 459.753 391.177 459.77 391.029C459.781 390.922 459.786 390.814 459.794 390.706C459.808 390.522 459.819 390.337 459.822 390.152C459.822 390.127 459.825 390.103 459.825 390.077V121.92H459.83ZM156.248 56.0653L211.104 84.1623L156.157 112.305L101.301 84.2083L156.248 56.0653ZM229.997 93.8392L284.944 121.982L229.997 150.125L175.05 121.982L229.997 93.8392ZM358.694 84.2083L303.838 112.305L248.891 84.1613L303.747 56.0643L358.694 84.2083ZM17.393 229.216L73.898 258.157V321.11L17.393 292.169V229.216V229.216ZM91.124 266.98L147.644 295.929V358.882L91.124 329.933C91.124 329.933 91.124 266.98 91.124 266.98ZM221.384 314.344L164.871 285.398V211.545L221.384 240.491V314.344ZM238.611 240.492L295.124 211.546V285.399L238.611 314.345V240.492ZM312.351 202.723L368.871 173.774V247.627L312.351 276.576V202.723ZM229.997 225.549L175.264 197.515L229.997 169.481L284.73 197.515L229.997 225.549ZM147.645 276.576L91.125 247.627V173.774L147.645 202.723V276.576ZM164.872 304.754L221.385 333.7V396.651L164.872 367.705V304.754ZM238.611 333.7L295.124 304.754V367.705L238.611 396.651V333.7ZM312.351 295.931L368.871 266.982V329.935L312.351 358.884V295.931ZM386.098 258.158L442.603 229.217V292.17L386.098 321.111V258.158ZM442.603 209.861L386.098 238.802V164.949L442.603 136.008V209.861ZM303.625 187.837L248.892 159.803L303.839 131.659L358.572 159.693L303.625 187.837ZM211.104 159.803L156.371 187.837L101.424 159.693L156.157 131.659L211.104 159.803ZM73.897 238.803L17.392 209.862V136.01L73.897 164.951V238.803ZM17.393 311.523L73.898 340.464V413.754L17.393 384.813V311.523V311.523ZM91.124 349.288L147.644 378.237V451.527L91.124 422.578C91.124 422.578 91.124 349.288 91.124 349.288ZM164.872 387.061L221.385 416.007V489.297L164.872 460.351V387.061ZM238.611 416.006L295.124 387.06V460.35L238.611 489.296V416.006ZM312.351 378.237L368.871 349.288V422.578L312.351 451.527V378.237ZM386.098 340.464L442.603 311.523V384.812L386.098 413.753V340.464ZM377.466 150.017L322.733 121.983L377.588 93.8863L432.321 121.92L377.466 150.017ZM229.997 18.2913L284.853 46.3883L229.997 74.4853L175.142 46.3883L229.997 18.2913ZM82.407 93.8863L137.263 121.983L82.53 150.017L27.674 121.92L82.407 93.8863Z" fill="#121212"/>
</svg>
