<svg width="38" height="28" viewBox="0 0 38 28" fill="none" xmlns="http://www.w3.org/2000/svg">
<path d="M36 4H2C1.46957 4 0.960859 3.78929 0.585786 3.41421C0.210714 3.03914 0 2.53043 0 2C0 1.46957 0.210714 0.96086 0.585786 0.585787C0.960859 0.210714 1.46957 0 2 0H36C36.5304 0 37.0391 0.210714 37.4142 0.585787C37.7893 0.96086 38 1.46957 38 2C38 2.53043 37.7893 3.03914 37.4142 3.41421C37.0391 3.78929 36.5304 4 36 4Z" fill="#121212"/>
<path d="M36 16H2C1.46957 16 0.960859 15.7893 0.585786 15.4142C0.210714 15.0391 0 14.5304 0 14C0 13.4696 0.210714 12.9609 0.585786 12.5858C0.960859 12.2107 1.46957 12 2 12H36C36.5304 12 37.0391 12.2107 37.4142 12.5858C37.7893 12.9609 38 13.4696 38 14C38 14.5304 37.7893 15.0391 37.4142 15.4142C37.0391 15.7893 36.5304 16 36 16Z" fill="#121212"/>
<path d="M36 28H2C1.46957 28 0.960859 27.7893 0.585786 27.4142C0.210714 27.0391 0 26.5304 0 26C0 25.4696 0.210714 24.9609 0.585786 24.5858C0.960859 24.2107 1.46957 24 2 24H36C36.5304 24 37.0391 24.2107 37.4142 24.5858C37.7893 24.9609 38 25.4696 38 26C38 26.5304 37.7893 27.0391 37.4142 27.4142C37.0391 27.7893 36.5304 28 36 28Z" fill="#121212"/>
</svg>
