<svg width="40" height="40" viewBox="0 0 40 40" fill="none" xmlns="http://www.w3.org/2000/svg">
<path fill-rule="evenodd" clip-rule="evenodd" d="M5 0C2.23853 0 0 2.23859 0 5V35C0 37.7614 2.23853 40 5 40H35C37.7614 40 40 37.7614 40 35V5C40 2.23859 37.7614 0 35 0H5ZM17.8016 21.3931C18.0988 22.7192 18.9888 24.269 20.5015 26.0356C21.9828 24.2961 22.8688 22.7517 23.1937 21.4001C23.4984 20.3257 23.3729 19.468 22.8727 18.8314C22.3381 18.085 21.5437 17.725 20.5 17.725C19.4562 17.725 18.6603 18.085 18.1272 18.8245C17.6224 19.468 17.5074 20.3242 17.8016 21.3931ZM28.783 30.1222C30.0896 29.5981 31.0378 28.5223 31.2469 27.2241L31.2454 27.2213C31.3365 26.5569 31.2797 25.9231 31.0065 25.2851L30.6526 24.4886L30.0538 23.2168L30.0239 23.1904C28.3932 19.8725 26.4028 16.1182 24.1181 11.9469L24.0285 11.7815L23.4028 10.6487L23.3215 10.5216C23.0947 10.1671 22.9095 9.87744 22.7517 9.65344C22.3934 9.18781 21.5631 8.60681 20.4955 8.60681C19.9608 8.60681 19.486 8.71521 19.1007 8.93344C18.3259 9.38873 18.106 9.76224 17.6367 10.5593L17.5865 10.6445L16.937 11.8065L16.8788 11.9455C14.5927 16.1182 12.6022 19.8795 10.964 23.1904L10.9357 23.2446C10.4324 24.269 10.1383 24.9292 9.98889 25.2892C8.92126 28.0817 11.2716 30.7866 14.2701 30.3709C14.9211 30.3181 15.6021 30.0957 16.3158 29.7371C17.2343 29.2409 18.275 28.4375 19.3726 27.3075C17.621 25.2364 16.5204 23.3836 16.1083 21.7531C15.396 18.7411 17.2073 16.146 20.5015 16.146C22.1366 16.146 23.4103 16.7242 24.3003 17.9127C25.8174 19.9837 25.1634 23.1904 21.6318 27.3061C23.7672 29.5147 26.2639 31.1424 28.783 30.1222ZM31.6023 22.5538C32.0458 23.41 32.4026 24.1258 32.6102 24.7346C34.1214 28.6029 31.0079 32.0028 27.2375 32C27.2076 32 27.0882 32 26.9388 31.9708H26.5222C24.569 31.7498 22.5472 30.5878 20.5 28.5167C18.4526 30.5906 16.4353 31.7498 14.4746 31.9708H14.0596C13.9534 31.9918 13.8634 31.9977 13.8094 31.9994C13.7883 32 13.7727 32 13.7639 32C9.99341 32 6.87854 28.6029 8.38965 24.736C8.42249 24.6512 8.54053 24.3774 8.77637 23.852L9.40063 22.5816V22.5273C11.5076 18.3547 13.4683 14.599 15.3363 11.2269L15.4274 11.0615C16.6115 8.76526 17.7717 7 20.5 7C23.261 7 24.2122 8.522 25.5397 11.0573L25.6651 11.2255C27.7136 14.9594 29.693 18.7259 31.6023 22.5232V22.5538Z" fill="black"/>
</svg>
