<svg width="40" height="40" viewBox="0 0 40 40" fill="none" xmlns="http://www.w3.org/2000/svg">
<path fill-rule="evenodd" clip-rule="evenodd" d="M0 5C0 2.23859 2.23859 0 5 0H35C37.7614 0 40 2.23859 40 5V35C40 37.7614 37.7614 40 35 40H5C2.23859 40 0 37.7614 0 35V5ZM10.1353 16.1901C7.85944 19.8577 9.30627 25.4235 11.8231 28.7982C13.0793 30.4855 14.3512 32 16.0933 32C16.1261 32 16.1591 31.9994 16.1927 31.9982C17.0112 31.9678 17.6027 31.7338 18.1746 31.5077C18.8166 31.2536 19.4806 30.9909 20.5222 30.9909C21.513 30.9909 22.1453 31.2451 22.7568 31.4908L22.762 31.4928C23.3629 31.7343 23.9828 31.9834 24.8975 31.9674C26.8598 31.9335 28.0646 30.2992 29.1276 28.8575C30.2368 27.3522 30.7932 25.8906 30.981 25.3321L30.9886 25.3099C31.0243 25.2106 30.9738 25.1023 30.8713 25.0586C30.8685 25.0573 30.8581 25.0533 30.8552 25.0522C30.5096 24.921 27.4785 23.6722 27.4466 20.2686C27.417 17.5033 29.7206 16.039 30.1826 15.7736L30.204 15.7611C30.2541 15.7312 30.289 15.6837 30.3008 15.6295C30.3084 15.5945 30.306 15.5586 30.2943 15.5253C30.2878 15.507 30.2786 15.4895 30.2667 15.4733C28.6768 13.3125 26.2397 12.9868 25.2586 12.9477C25.1162 12.9345 24.9692 12.9278 24.8217 12.9278C23.6693 12.9278 22.5654 13.332 21.6785 13.6568C21.0663 13.881 20.5375 14.0746 20.1728 14.0746C19.7634 14.0746 19.2322 13.8789 18.617 13.6524L18.6159 13.6519L18.6154 13.6517C17.7919 13.3482 16.8585 13.0042 15.8704 13.0042C15.8467 13.0042 15.8235 13.0045 15.8007 13.0049C13.5032 13.0363 11.3322 14.2569 10.1353 16.1901ZM21.2027 8.9332C22.2003 7.84811 23.8693 7.0528 25.2606 7.00015C25.3748 6.99597 25.4762 7.0755 25.4889 7.18253C25.6503 8.54861 25.1169 10.0737 24.062 11.2621C23.0598 12.3875 21.5922 13.0864 20.2318 13.0864C20.1363 13.0863 20.0404 13.0829 19.9465 13.076C19.8819 13.0714 19.825 13.0411 19.7879 12.9957C19.7653 12.9681 19.7501 12.935 19.7449 12.8987C19.5267 11.3659 20.3549 9.84525 21.2027 8.9332Z" fill="black"/>
</svg>
