<svg width="40" height="40" viewBox="0 0 40 40" fill="none" xmlns="http://www.w3.org/2000/svg">
<path fill-rule="evenodd" clip-rule="evenodd" d="M5 0C2.23859 0 0 2.23859 0 5V35C0 37.7614 2.23859 40 5 40H35C37.7614 40 40 37.7614 40 35V5C40 2.23859 37.7614 0 35 0H5ZM9.38544 7H31.6146C31.9812 7.00272 32.332 7.14957 32.5912 7.40878C32.8505 7.66803 32.9973 8.01883 33 8.38541V30.6146C32.9973 30.9812 32.8505 31.332 32.5912 31.5912C32.332 31.8504 31.9812 31.9973 31.6146 32H25.2604V22.3229H28.5208L29.0104 18.5417H25.2604V16.1354C25.2604 15.0417 25.5625 14.2917 27.1354 14.2917H29.125V10.9271C28.1562 10.7812 27.1875 10.7812 26.2188 10.7812C23.3229 10.7812 21.3542 12.5417 21.3542 15.7708V18.5521H18.1042V22.3333H21.3542V32H9.38544C9.0188 31.9973 8.66803 31.8504 8.40881 31.5912C8.14954 31.332 8.00275 30.9812 8 30.6146V8.38541C8.00275 8.01883 8.14954 7.66803 8.40881 7.40878C8.66803 7.14957 9.0188 7.00272 9.38544 7Z" fill="black"/>
</svg>
