<svg width="40" height="40" viewBox="0 0 40 40" fill="none" xmlns="http://www.w3.org/2000/svg">
<path fill-rule="evenodd" clip-rule="evenodd" d="M5 0C2.23859 0 0 2.23859 0 5V35C0 37.7614 2.23859 40 5 40H35C37.7614 40 40 37.7614 40 35V5C40 2.23859 37.7614 0 35 0H5ZM20.7424 18.225V22.875V22.8875H27.7704C27.4388 24.85 25.6403 28.1625 20.7551 28.1625C16.5331 28.1625 13.0893 24.725 13.0893 20.5125C13.0893 16.3 16.5331 12.8625 20.7551 12.8625C23.1403 12.8625 24.7474 13.8625 25.6658 14.7125L29.2883 11.2625C27.0816 9.23749 24.199 8 20.7551 8C13.7143 8 8 13.6 8 20.5C8 27.4 13.7143 33 20.7551 33C28.1148 33 33 27.925 33 20.7875C33 19.75 32.8597 19.0125 32.6812 18.225H20.7424Z" fill="black"/>
</svg>
