<svg width="40" height="40" viewBox="0 0 40 40" fill="none" xmlns="http://www.w3.org/2000/svg">
<path fill-rule="evenodd" clip-rule="evenodd" d="M5 0C2.23859 0 0 2.23859 0 5V35C0 37.7614 2.23859 40 5 40H35C37.7614 40 40 37.7614 40 35V5C40 2.23859 37.7614 0 35 0H5ZM9.61157 25.0952H3V25.9973H9.61157V25.0952ZM9.61157 23.3641H3V24.2688H9.61157V23.3641ZM7.72174 21.637H4.88416V22.5431H7.72174V21.637ZM7.72174 19.9112H4.88416V20.8159H7.72174V19.9112ZM7.72174 18.1827H4.88416V19.0888H7.72174V18.1827ZM7.72174 16.4529H4.88416V17.359H7.72174V16.4529ZM9.61157 14.7271H3V15.6319H9.61157V14.7271ZM9.61157 13H3V13.9048H9.61157V13ZM20.7211 24.2688H10.5551V23.3641H21.0993C21.0214 23.6841 20.8911 23.9907 20.7211 24.2688ZM12.4449 19.9112H19.9291H19.932C20.2457 20.1694 20.5128 20.4751 20.7225 20.8159H12.4449V19.9112ZM12.4435 19.0888V18.1827H20.7225C20.5114 18.5298 20.2465 18.8349 19.9306 19.0888H12.4435ZM10.5536 14.7271H20.7211C20.8858 15.0125 21.0124 15.3165 21.0979 15.6319H10.5536V14.7271ZM10.5536 13H17.5959C18.496 12.9993 19.3632 13.3224 20.0241 13.9048H10.5536V13ZM15.2769 16.4529H12.4435V17.359H15.2769V16.4529ZM21.0753 17.359H18.1116V16.4529H21.2028C21.2028 16.7648 21.1588 17.07 21.0753 17.359ZM15.2754 21.637H12.4435L12.4421 22.5431H15.2754V21.637ZM18.1116 22.5431V21.637H21.0753C21.1588 21.9259 21.2028 22.2325 21.2028 22.5431H18.1116ZM17.5945 26L10.5536 25.9905V25.0952H20.0269C19.3908 25.653 18.5394 26 17.5945 26ZM26.6102 25.0952H21.8898V25.9973H26.6102V25.0952ZM26.6102 23.3641H21.8898V24.2688H26.6102V23.3641ZM26.6088 21.637H23.7754V22.5431H26.6088V21.637ZM26.6088 19.9112H23.7754V20.8159H26.6088V19.9112ZM21.8898 14.7271H27.9248L28.2507 15.6319H21.8898V14.7271ZM21.8898 13H27.2986L27.6245 13.9034H21.8898V13ZM37 25.0952H32.2754V25.9973H37V25.0952ZM37 23.3641H32.2754V24.2688H37V23.3641ZM35.1088 21.637H32.2754V22.5431H35.1088V21.637ZM35.1088 19.9112H32.2754V20.8159H35.1088V19.9112ZM35.1088 19.0888H32.2754V18.257L31.9751 19.0888H26.9105L26.6088 18.257V19.0888H23.7754V18.1827H29.1772L29.4435 18.9146L29.7098 18.1827H35.1088V19.0888ZM30.336 16.4529H35.1102V17.359H30.0102L30.336 16.4529ZM31.2653 13.9034L31.5926 13H37V13.9034H31.2653ZM29.7693 25.0952L29.4435 25.9905L29.1163 25.0952H29.7693ZM30.4069 23.3641L30.0696 24.2688H28.8173L28.4844 23.3641H30.4069ZM31.0387 21.637L30.7057 22.5431H28.1813L27.8469 21.637H31.0387ZM31.3419 20.8159H27.5466L27.2208 19.9112H31.6663L31.3419 20.8159ZM28.8782 17.359H23.7754V16.4529H28.551L28.8782 17.359ZM37 15.6319H30.6392L30.9622 14.7271H37V15.6319Z" fill="black"/>
</svg>
