<svg width="19" height="19" viewBox="0 0 19 19" fill="none" xmlns="http://www.w3.org/2000/svg">
<path d="M17.2959 12.3001C17.1247 12.1124 16.8771 12.1146 16.7086 12.3048C16.1516 12.9335 15 14.3971 15 15.498C15 16.992 15.949 17.946 17 17.998C17.906 18.042 19 17.107 19 15.498C19 14.3358 17.8546 12.9125 17.2959 12.3001ZM0.414001 10.998C0.414001 11.532 0.622001 12.034 1 12.412L6.586 17.998C6.964 18.376 7.466 18.584 8 18.584C8.534 18.584 9.036 18.376 9.414 17.998L15.9897 11.4223C16.2241 11.1879 16.2241 10.8081 15.9897 10.5737L15.707 10.291L8 2.584L6.13127 0.715265C5.89695 0.48095 5.51705 0.48095 5.28274 0.715265L4.71727 1.28074C4.48295 1.51505 4.48295 1.89495 4.71727 2.12926L6.16174 3.57374C6.39605 3.80805 6.39605 4.18795 6.16174 4.42226L1 9.584C0.622001 9.962 0.414001 10.464 0.414001 10.998ZM7.57574 5.83626C7.81005 5.60195 8.18995 5.60195 8.42427 5.83626L13.1617 10.5737C13.3961 10.8081 13.3961 11.188 13.1617 11.4223L8 16.584V16.584C8.00055 16.584 8.001 16.5844 8.001 16.585L8 17.584V16.584L2.83827 11.4223C2.60395 11.188 2.60395 10.8081 2.83827 10.5737L7.57574 5.83626Z" fill="#F8F8FF"/>
</svg>
