<svg width="460" height="512" viewBox="0 0 460 512" fill="none" xmlns="http://www.w3.org/2000/svg">
<path d="M459.666 121.92C459.666 121.551 459.635 121.192 459.59 120.836C459.579 120.744 459.564 120.655 459.549 120.564C459.502 120.271 459.442 119.984 459.368 119.703C459.351 119.638 459.336 119.571 459.317 119.505C459.216 119.157 459.094 118.817 458.952 118.487C458.937 118.453 458.919 118.42 458.904 118.387C458.773 118.096 458.626 117.817 458.465 117.545C458.421 117.471 458.378 117.399 458.332 117.327C458.157 117.05 457.971 116.783 457.766 116.529C457.749 116.508 457.735 116.485 457.718 116.464C457.498 116.195 457.257 115.944 457.006 115.703C456.939 115.639 456.869 115.578 456.799 115.516C456.583 115.322 456.358 115.139 456.123 114.967C456.068 114.927 456.015 114.883 455.959 114.844C455.663 114.638 455.354 114.452 455.032 114.285C455.015 114.276 455 114.263 454.981 114.254L233.76 0.94725C231.295 -0.31575 228.373 -0.31575 225.907 0.94725L4.689 114.253C4.671 114.262 4.656 114.275 4.637 114.284C4.317 114.452 4.008 114.637 3.712 114.842C3.655 114.882 3.601 114.926 3.544 114.967C3.31 115.138 3.087 115.32 2.871 115.513C2.801 115.576 2.731 115.637 2.663 115.702C2.413 115.942 2.173 116.194 1.952 116.462C1.934 116.484 1.919 116.507 1.901 116.529C1.698 116.783 1.512 117.05 1.336 117.326C1.29 117.398 1.246 117.471 1.203 117.544C1.042 117.816 0.894 118.095 0.764 118.386C0.749 118.419 0.731 118.451 0.716 118.486C0.572 118.814 0.453 119.154 0.351 119.504C0.331 119.569 0.318001 119.636 0.300001 119.702C0.225001 119.983 0.164001 120.27 0.117001 120.563C0.103001 120.654 0.0870002 120.743 0.0760002 120.835C0.0310002 121.191 0 121.552 0 121.919V390.078C0 390.103 0.00300026 390.127 0.00300026 390.153C0.00400026 390.338 0.0180001 390.522 0.0310001 390.707C0.0390001 390.815 0.0420003 390.923 0.0550003 391.03C0.0710003 391.178 0.0990011 391.324 0.123001 391.471C0.146001 391.61 0.164 391.749 0.194 391.886C0.216 391.987 0.246 392.085 0.271 392.185C0.316 392.36 0.357001 392.535 0.412001 392.706C0.433001 392.77 0.459001 392.832 0.481001 392.895C0.550001 393.094 0.620001 393.291 0.703001 393.483C0.732001 393.55 0.767001 393.613 0.797001 393.678C0.881001 393.861 0.965001 394.043 1.061 394.218C1.126 394.337 1.202 394.45 1.272 394.566C1.342 394.682 1.409 394.8 1.486 394.913C1.599 395.08 1.724 395.238 1.849 395.398C1.893 395.454 1.932 395.513 1.978 395.568C2.112 395.73 2.258 395.884 2.405 396.037C2.45 396.084 2.492 396.135 2.538 396.181C2.665 396.308 2.803 396.427 2.94 396.546C3.017 396.614 3.089 396.684 3.169 396.749C3.277 396.837 3.393 396.918 3.505 397.001C3.624 397.089 3.744 397.18 3.868 397.263C3.956 397.322 4.049 397.373 4.14 397.428C4.298 397.524 4.458 397.621 4.623 397.707C4.645 397.719 4.665 397.732 4.687 397.744L78.052 435.32C78.304 435.465 78.562 435.598 78.828 435.717L151.082 472.725C151.773 473.221 152.538 473.617 153.361 473.892L225.906 511.049C225.954 511.073 226.005 511.089 226.053 511.113C226.178 511.175 226.302 511.239 226.431 511.296C226.434 511.297 226.438 511.299 226.44 511.301C226.535 511.342 226.635 511.376 226.733 511.412C226.826 511.448 226.919 511.482 227.012 511.514C227.159 511.565 227.306 511.614 227.456 511.656C227.524 511.676 227.59 511.692 227.658 511.709C227.758 511.735 227.858 511.763 227.958 511.785C228.136 511.825 228.317 511.854 228.5 511.883C228.578 511.895 228.655 511.913 228.733 511.923C228.789 511.93 228.846 511.938 228.902 511.945C229.118 511.969 229.34 511.976 229.561 511.983C229.649 511.985 229.738 511.998 229.825 511.998C229.827 511.998 229.83 511.998 229.832 511.998C229.834 511.998 229.837 511.998 229.839 511.998C229.926 511.998 230.015 511.985 230.103 511.983C230.325 511.976 230.545 511.968 230.762 511.945C230.818 511.939 230.875 511.931 230.931 511.923C231.009 511.913 231.086 511.895 231.164 511.883C231.347 511.854 231.528 511.826 231.707 511.785C231.808 511.762 231.907 511.736 232.008 511.709C232.075 511.692 232.141 511.676 232.208 511.656C232.358 511.612 232.507 511.564 232.654 511.514C232.747 511.482 232.84 511.447 232.933 511.412C233.031 511.374 233.131 511.341 233.227 511.299C233.228 511.299 233.229 511.298 233.23 511.298C233.361 511.242 233.486 511.176 233.612 511.113C233.66 511.089 233.711 511.074 233.759 511.049L306.305 473.892C307.127 473.616 307.892 473.221 308.582 472.725L380.839 435.715C381.104 435.596 381.362 435.464 381.612 435.32L454.977 397.743C455 397.731 455.019 397.718 455.041 397.706C455.208 397.619 455.366 397.523 455.524 397.427C455.615 397.372 455.709 397.319 455.796 397.262C455.92 397.179 456.038 397.089 456.158 397C456.272 396.916 456.387 396.836 456.495 396.748C456.574 396.684 456.648 396.612 456.724 396.545C456.861 396.426 456.998 396.306 457.126 396.18C457.173 396.134 457.214 396.084 457.259 396.036C457.405 395.883 457.551 395.729 457.685 395.567C457.731 395.512 457.77 395.453 457.814 395.397C457.939 395.237 458.063 395.079 458.176 394.912C458.252 394.799 458.318 394.681 458.39 394.565C458.461 394.449 458.536 394.336 458.601 394.217C458.696 394.041 458.781 393.859 458.865 393.677C458.895 393.612 458.93 393.547 458.959 393.482C459.042 393.29 459.112 393.092 459.179 392.894C459.202 392.831 459.227 392.769 459.249 392.705C459.303 392.535 459.345 392.359 459.39 392.184C459.415 392.084 459.445 391.985 459.467 391.885C459.496 391.748 459.515 391.608 459.538 391.47C459.562 391.323 459.589 391.177 459.606 391.029C459.617 390.922 459.622 390.814 459.63 390.706C459.644 390.522 459.655 390.337 459.658 390.152C459.658 390.127 459.661 390.103 459.661 390.077V121.92H459.666ZM156.084 56.0653L210.94 84.1623L155.993 112.305L101.137 84.2083L156.084 56.0653ZM229.833 93.8392L284.78 121.982L229.833 150.125L174.886 121.982L229.833 93.8392ZM358.53 84.2083L303.674 112.305L248.727 84.1613L303.583 56.0643L358.53 84.2083ZM17.229 229.216L73.734 258.157V321.11L17.229 292.169V229.216ZM90.96 266.98L147.48 295.929V358.882L90.96 329.933C90.96 329.933 90.96 266.98 90.96 266.98ZM221.22 314.344L164.707 285.398V211.545L221.22 240.491V314.344ZM238.447 240.492L294.96 211.546V285.399L238.447 314.345V240.492ZM312.187 202.723L368.707 173.774V247.627L312.187 276.576V202.723ZM229.833 225.549L175.1 197.515L229.833 169.481L284.566 197.515L229.833 225.549ZM147.481 276.576L90.961 247.627V173.774L147.481 202.723V276.576ZM164.708 304.754L221.221 333.7V396.651L164.708 367.705V304.754ZM238.447 333.7L294.96 304.754V367.705L238.447 396.651V333.7ZM312.187 295.931L368.707 266.982V329.935L312.187 358.884V295.931ZM385.934 258.158L442.439 229.217V292.17L385.934 321.111V258.158ZM442.439 209.861L385.934 238.802V164.949L442.439 136.008V209.861ZM303.461 187.837L248.728 159.803L303.675 131.659L358.408 159.693L303.461 187.837ZM210.94 159.803L156.207 187.837L101.26 159.693L155.993 131.659L210.94 159.803ZM73.733 238.803L17.228 209.862V136.01L73.733 164.951V238.803ZM17.229 311.523L73.734 340.464V413.754L17.229 384.813V311.523ZM90.96 349.288L147.48 378.237V451.527L90.96 422.578C90.96 422.578 90.96 349.288 90.96 349.288ZM164.708 387.061L221.221 416.007V489.297L164.708 460.351V387.061ZM238.447 416.006L294.96 387.06V460.35L238.447 489.296V416.006ZM312.187 378.237L368.707 349.288V422.578L312.187 451.527V378.237ZM385.934 340.464L442.439 311.523V384.812L385.934 413.753V340.464ZM377.302 150.017L322.569 121.983L377.424 93.8863L432.157 121.92L377.302 150.017ZM229.833 18.2913L284.689 46.3883L229.833 74.4853L174.978 46.3883L229.833 18.2913ZM82.243 93.8863L137.099 121.983L82.366 150.017L27.51 121.92L82.243 93.8863Z" fill="#F8F8FF"/>
</svg>
