<svg width="20" height="18" viewBox="0 0 20 18" fill="none" xmlns="http://www.w3.org/2000/svg">
<path d="M12.4592 0C13.1062 0 13.7075 0.309417 14.05 0.818599L15.3176 2.70309H17.2917C18.7874 2.70309 20 3.82784 20 5.2153V14.8776C20 16.2651 18.7874 17.3898 17.2917 17.3898H2.70833C1.21256 17.3898 0 16.2651 0 14.8776V5.2153C0 3.82784 1.21256 2.70309 2.70833 2.70309H4.84877L6.0009 0.865016C6.33657 0.32949 6.954 0 7.62182 0H12.4592ZM9.99999 5.41062C7.4687 5.41062 5.41667 7.31406 5.41667 9.66203C5.41667 12.01 7.4687 13.9135 9.99999 13.9135C12.5313 13.9135 14.5833 12.01 14.5833 9.66203C14.5833 7.31406 12.5313 5.41062 9.99999 5.41062ZM9.99999 6.57011C11.8409 6.57011 13.3333 7.9544 13.3333 9.66203C13.3333 11.3697 11.8409 12.754 9.99999 12.754C8.15905 12.754 6.66666 11.3697 6.66666 9.66203C6.66666 7.9544 8.15905 6.57011 9.99999 6.57011Z" fill="#F8F8FF"/>
</svg>
